<svg version="1.1" id="Layer_1" xmlns="http://www.w3.org/2000/svg" xmlns:xlink="http://www.w3.org/1999/xlink" x="0px" y="0px"
	 width="100%" viewBox="0 0 226 263" enable-background="new 0 0 226 263" xml:space="preserve">
<path fill="white" opacity="1.000000" stroke="none" 
	d="
M214.041168,224.969391 
	C214.286011,233.719315 214.767639,242.475952 214.520035,251.211914 
	C214.482956,252.520111 211.109985,254.634979 209.138016,254.814484 
	C203.691818,255.310181 198.170288,254.975479 192.678558,254.974380 
	C133.766602,254.962692 74.854652,254.952026 15.370890,254.658508 
	C8.363709,248.305511 13.165632,241.368179 12.417903,234.858963 
	C12.820837,234.721588 13.223771,234.584213 13.626706,234.446823 
	C15.023930,235.968719 16.421154,237.490616 17.861523,239.416962 
	C17.876865,240.904510 17.849062,241.987640 17.807125,243.178467 
	C17.777670,243.504120 17.790403,243.720505 18.013424,244.302261 
	C19.872583,245.111633 21.548666,245.935852 23.226561,245.939545 
	C51.110260,246.001099 78.994186,245.959747 107.275345,245.862915 
	C110.397369,245.528152 113.122116,245.271866 116.184364,245.282608 
	C118.825500,245.700699 121.128632,245.974380 123.432854,245.983856 
	C146.628235,246.079285 169.823792,246.131409 193.292816,246.415634 
	C203.359497,250.633484 207.845947,247.946411 208.345795,238.037033 
	C211.813736,238.672577 212.713318,236.894882 212.951996,234.200897 
	C213.225327,231.115768 213.670593,228.045898 214.041168,224.969391 
z"/>
<path fill="white" opacity="1.000000" stroke="none" 
	d="
M197.086227,88.954422 
	C206.367096,97.401825 206.509857,118.490547 196.836151,126.153160 
	C193.658798,128.669968 188.998779,129.259277 185.127533,130.979324 
	C183.202164,131.834808 180.931000,132.856613 179.843903,134.487976 
	C175.505020,140.999130 170.158569,146.130600 162.149948,148.914856 
	C160.238678,148.036407 158.231339,147.467392 157.773666,146.293976 
	C155.969971,141.669464 152.790482,141.541306 148.957001,142.509033 
	C150.609390,138.429169 152.188309,134.699417 154.125595,131.041641 
	C157.046402,131.432693 159.608826,131.751801 162.171265,132.070892 
	C161.856689,134.089111 161.542114,136.107346 161.103775,138.919678 
	C168.124130,137.618027 171.153000,132.833771 172.688232,127.901337 
	C174.907516,120.771118 175.746155,113.211159 177.430145,105.133064 
	C177.554657,102.308380 177.422852,100.185173 177.291077,98.061974 
	C177.264145,97.595703 177.237228,97.129440 177.586044,96.244690 
	C180.079376,94.702316 182.269302,93.693443 184.293396,92.420815 
	C186.162903,91.245384 187.761505,90.437729 188.568298,93.159531 
	C187.435181,94.826721 186.199799,96.404938 186.033691,98.088638 
	C185.417587,104.334038 185.108887,110.611900 184.790024,116.882935 
	C184.713272,118.392242 185.041519,119.922134 185.183517,121.442566 
	C186.865311,121.021538 188.910629,121.052979 190.138275,120.066658 
	C191.726242,118.790825 193.158188,116.865082 193.789505,114.935280 
	C196.179504,107.629547 195.331909,100.613243 190.986496,93.869797 
	C193.034744,92.043816 195.060486,90.499123 197.086227,88.954422 
z"/>
<path fill="white" opacity="1.000000" stroke="none" 
	d="
M115.846870,245.015594 
	C113.122116,245.271866 110.397369,245.528152 107.312187,245.399628 
	C106.964890,241.851151 106.694084,238.655807 107.043022,235.529633 
	C108.213509,225.043015 106.576576,215.758148 97.023964,209.402069 
	C96.099747,208.787125 95.520523,207.657471 94.771400,206.775009 
	C80.954140,190.498917 79.626732,190.197006 60.082359,198.554031 
	C61.168106,195.260178 66.445473,191.604874 58.877037,189.944122 
	C64.134842,188.000931 69.535027,186.359818 74.586510,183.978912 
	C76.889275,182.893555 78.503456,180.347275 81.001221,178.270691 
	C85.224724,178.710587 86.858162,177.177139 86.592987,173.486008 
	C86.399628,170.794464 86.897530,168.948517 90.059525,171.462463 
	C89.419762,175.129532 88.576111,178.354279 88.297554,181.627106 
	C88.130203,183.593399 88.151573,186.225220 89.276543,187.544708 
	C95.712898,195.093979 102.529694,202.317825 109.163338,209.700653 
	C111.185837,211.951584 112.644379,211.875961 114.768692,209.544296 
	C119.658295,204.177399 124.883369,199.116135 129.999741,194.301102 
	C130.065079,198.624863 132.246841,199.714676 135.668198,199.287476 
	C128.990875,206.730942 122.435539,213.872589 115.586273,221.073837 
	C111.739754,221.885269 107.946365,221.978912 107.919891,227.340439 
	C107.882835,234.841446 108.475510,236.301437 114.007584,238.020584 
	C114.019691,238.036270 114.004936,237.995483 114.155594,237.772797 
	C114.799385,237.034363 115.292526,236.518600 115.840462,236.450500 
	C115.879135,239.603958 115.862999,242.309784 115.846870,245.015594 
z"/>
<path fill="white" opacity="1.000000" stroke="none" 
	d="
M56.192738,98.005287 
	C56.153904,94.615486 56.115070,91.225693 56.275650,87.078018 
	C57.537979,84.482361 58.600887,82.644562 60.170624,79.930466 
	C62.195675,84.473930 63.640911,87.716492 65.531311,90.974182 
	C84.913658,90.678993 101.266869,83.594719 116.157639,71.964508 
	C116.617844,71.984001 116.801910,71.991714 116.873932,72.314247 
	C116.391006,74.227959 116.020119,75.826851 115.649239,77.425743 
	C119.883423,76.233208 122.223618,74.194382 121.246841,69.792999 
	C122.995094,68.721962 124.492882,67.857414 126.043945,67.360153 
	C126.401176,69.419159 126.705139,71.110886 126.725243,72.992355 
	C124.888885,74.682716 123.355637,76.203880 121.780807,77.680679 
	C110.224991,88.517189 96.506096,94.976471 80.742477,97.599510 
	C75.995293,97.835808 71.502151,98.275543 66.688515,98.769348 
	C65.939911,98.890472 65.511787,98.957535 64.826302,99.295334 
	C61.971081,105.588272 62.078278,111.419533 65.866562,117.229095 
	C65.933975,117.462463 66.031586,117.938377 65.727867,118.092270 
	C63.944969,118.825714 62.465790,119.405251 60.951206,119.623276 
	C59.682266,117.835022 58.448734,116.408295 57.215202,114.981560 
	C57.200283,114.537987 57.185360,114.094406 57.422527,113.040390 
	C59.959938,107.336212 58.910118,102.585091 56.192738,98.005287 
M83.479683,95.516716 
	C83.479683,95.516716 83.513611,95.511185 83.479683,95.516716 
z"/>
<path fill="white" opacity="1.000000" stroke="none" 
	d="
M148.883545,142.859161 
	C152.790482,141.541306 155.969971,141.669464 157.773666,146.293976 
	C158.231339,147.467392 160.238678,148.036407 161.799713,148.986053 
	C153.363541,150.099915 149.410431,157.534515 144.008820,162.841202 
	C142.437973,164.384430 142.573761,167.664841 141.553391,170.450134 
	C135.988647,169.521545 135.398315,164.449615 133.188858,160.671448 
	C135.938095,157.581177 138.464279,154.735657 140.706680,151.654617 
	C134.884537,149.775375 129.352051,148.272324 123.977997,152.374817 
	C123.624214,153.106918 123.335258,153.568802 122.725227,153.945404 
	C117.843651,153.875183 113.272804,154.085968 108.725815,153.845581 
	C104.833786,153.639832 102.844543,151.450928 104.282356,147.470840 
	C105.671043,143.626740 107.421791,139.913452 109.385551,136.083344 
	C114.734253,134.729889 118.806839,136.221085 122.370232,139.823029 
	C123.690163,141.157242 125.465279,142.041122 127.336578,143.345108 
	C134.826859,145.496460 141.984695,146.529480 148.960602,142.904083 
	C148.927261,142.926163 148.883545,142.859161 148.883545,142.859161 
M109.890831,148.918854 
	C112.275604,150.609909 114.858604,151.477005 116.052856,148.020782 
	C116.318306,147.252548 113.488945,145.414963 111.504013,143.955246 
	C110.132004,144.764359 108.760002,145.573471 107.387993,146.382584 
	C108.094925,147.088882 108.801857,147.795181 109.890831,148.918854 
z"/>
<path fill="white" opacity="1.000000" stroke="none" 
	d="
M70.861084,45.971558 
	C90.001442,24.042080 125.317261,22.105696 146.755402,40.931187 
	C145.526505,43.731365 144.251251,45.929585 142.685333,47.947044 
	C128.907486,37.214989 113.798409,34.146999 97.541672,39.243240 
	C91.381142,41.174484 85.838242,45.075935 79.662804,47.932587 
	C76.494888,47.181068 73.677986,46.576313 70.861084,45.971558 
z"/>
<path fill="white" opacity="1.000000" stroke="none" 
	d="
M46.817928,107.955513 
	C47.705715,113.329918 48.520756,118.717659 49.502567,124.074837 
	C50.412354,129.039047 49.059216,130.809341 43.964363,130.956192 
	C28.712400,131.395752 19.870501,123.052063 20.124376,107.885025 
	C20.199768,103.380997 21.622416,98.899506 22.940346,94.397614 
	C25.688576,95.270203 27.924194,96.152885 30.082607,97.449112 
	C30.014700,103.613747 29.430325,109.447128 30.212780,115.091019 
	C30.893248,119.999283 35.655479,122.274231 40.427910,120.864365 
	C40.785801,118.797401 40.904480,116.880653 41.336857,114.818443 
	C42.770115,112.112740 43.889679,109.552498 45.235493,107.112511 
	C45.913807,107.473671 46.365868,107.714592 46.817928,107.955513 
z"/>
<path fill="white" opacity="1.000000" stroke="none" 
	d="
M30.159813,97.035553 
	C27.924194,96.152885 25.688576,95.270203 23.206465,94.141022 
	C24.659111,88.427338 29.019548,85.725937 33.988396,84.244530 
	C36.964397,83.357269 37.774536,81.947296 38.069286,79.109802 
	C38.609913,73.905342 39.640060,68.751740 41.060638,63.349133 
	C44.128071,63.091225 46.600986,63.061115 49.073906,63.031006 
	C48.358028,68.402077 47.642151,73.773140 46.658100,79.834740 
	C45.605953,82.679794 44.821983,84.834312 44.033138,86.574020 
	C43.686855,84.108162 43.345451,82.057121 43.004047,80.006081 
	C42.446625,79.977142 41.889206,79.948204 41.331783,79.919273 
	C40.572563,81.606628 39.422123,83.236061 39.161354,84.997223 
	C38.886612,86.852753 38.858910,89.303780 39.869835,90.601341 
	C40.586853,91.521667 43.208008,90.958488 45.073189,91.348824 
	C45.712410,92.721809 46.257687,93.803452 46.802963,94.885086 
	C46.839378,98.935814 46.875797,102.986549 46.865074,107.496399 
	C46.365868,107.714592 45.913807,107.473671 45.028656,106.920692 
	C43.468170,107.230865 41.586807,107.657127 41.363949,108.514488 
	C40.833324,110.555893 41.086571,112.801064 41.023159,114.963913 
	C40.904480,116.880653 40.785801,118.797401 40.377621,120.436478 
	C39.392078,112.397911 38.609440,104.643349 38.041168,96.873108 
	C37.802532,93.610184 36.020916,93.323830 33.687557,94.315765 
	C32.365211,94.877907 31.326353,96.106903 30.159813,97.035553 
z"/>
<path fill="white" opacity="1.000000" stroke="none" 
	d="
M90.093590,171.040390 
	C86.897530,168.948517 86.399628,170.794464 86.592987,173.486008 
	C86.858162,177.177139 85.224724,178.710587 81.236526,178.022430 
	C80.967407,174.921204 81.034225,171.875275 81.164734,168.268555 
	C81.258194,167.493317 81.249283,167.280380 81.201675,167.068954 
	C81.143860,166.306595 81.086044,165.544220 81.096817,164.092651 
	C81.784004,160.576523 82.402603,157.749634 83.356018,155.009933 
	C84.635536,155.745316 85.722450,156.255920 86.503059,157.062851 
	C94.906891,165.749969 105.497681,167.699677 116.920532,166.873306 
	C119.659378,166.675171 122.350006,165.810349 124.825676,165.510773 
	C121.031258,168.361176 119.474312,171.070984 123.771835,174.373016 
	C119.848747,175.078232 116.126877,176.376053 112.672440,175.865295 
	C105.074463,174.741852 97.611603,172.704620 90.093590,171.040390 
z"/>
<path fill="white" opacity="1.000000" stroke="none" 
	d="
M135.790192,198.985687 
	C132.246841,199.714676 130.065079,198.624863 130.061646,194.043030 
	C130.146652,193.245132 130.197189,193.075577 130.370941,192.760254 
	C130.655807,192.417892 130.806030,192.212936 131.106873,191.730591 
	C132.172989,190.600479 133.077133,189.739395 134.249832,188.919556 
	C138.350540,186.956604 142.182709,184.952423 146.014877,182.948273 
	C154.797165,186.242905 163.579468,189.537537 172.843842,193.225220 
	C174.557526,194.065170 175.789139,194.512070 177.020752,194.958954 
	C177.458618,195.012131 177.896469,195.065292 178.755417,195.457474 
	C179.726456,197.402420 180.276413,199.008347 180.908600,200.854431 
	C177.111649,200.854431 174.053528,200.854431 170.619843,200.849213 
	C163.524841,198.500580 156.827316,196.091843 150.080582,193.829956 
	C141.220413,190.859512 140.736755,191.078217 135.790192,198.985687 
z"/>
<path fill="white" opacity="1.000000" stroke="none" 
	d="
M17.818386,239.012512 
	C16.421154,237.490616 15.023930,235.968719 13.626706,234.446823 
	C13.223771,234.584213 12.820837,234.721588 12.417903,234.858963 
	C13.165632,241.368179 8.363709,248.305511 14.904220,254.619751 
	C10.745399,255.237183 8.974164,253.143417 9.008593,249.016678 
	C9.070617,241.582474 8.609921,234.117920 9.134430,226.720413 
	C9.728935,218.335693 14.018133,211.568130 20.778028,206.277679 
	C22.855200,208.331223 24.454571,210.169891 25.886795,212.302200 
	C23.188011,217.285217 19.977934,221.752609 18.346998,226.736740 
	C17.120480,230.484970 17.920509,234.896332 17.818386,239.012512 
z"/>
<path fill="white" opacity="1.000000" stroke="none" 
	d="
M165.050705,67.976746 
	C165.695908,70.661583 166.843948,73.335907 166.900314,76.033051 
	C167.160919,88.503204 167.180099,100.979980 167.127014,113.453697 
	C167.117386,115.715904 166.366257,117.974945 165.576141,120.516663 
	C162.771622,118.806938 160.348419,116.815987 157.943909,114.394096 
	C158.279922,108.997108 158.597244,104.031067 159.159149,99.247070 
	C160.569611,100.464012 161.735474,101.498909 162.988861,102.611511 
	C166.028259,96.886543 165.726578,85.293465 162.136246,81.743935 
	C161.675934,84.016640 161.567825,85.969292 160.843994,87.658028 
	C160.302277,88.921822 158.967010,89.845474 157.986542,90.721054 
	C157.987991,90.521530 157.990540,90.122482 158.251450,89.792770 
	C158.307709,84.326454 158.103073,79.189842 158.134430,73.813751 
	C160.597183,71.708420 162.823944,69.842583 165.050705,67.976746 
z"/>
<path fill="white" opacity="1.000000" stroke="none" 
	d="
M145.926590,26.076834 
	C136.893845,23.320925 127.861115,20.565016 118.671677,17.527674 
	C120.800735,16.323681 123.086494,15.401121 125.372253,14.478561 
	C125.258865,13.921213 125.145477,13.363865 125.032089,12.806518 
	C114.989731,10.362074 104.960182,9.630617 94.561523,13.995388 
	C90.434677,15.336502 86.714943,16.662727 82.614807,18.046919 
	C78.815407,18.713516 75.396416,19.322147 71.977417,19.930779 
	C88.591347,9.243599 106.780693,7.484474 125.786598,10.502348 
	C129.034286,11.018035 132.236664,11.819183 135.876480,12.926952 
	C139.504196,17.602575 142.715393,21.839705 145.926590,26.076834 
z"/>
<path fill="white" opacity="1.000000" stroke="none" 
	d="
M145.830399,182.647522 
	C142.182709,184.952423 138.350540,186.956604 134.425049,188.643127 
	C135.047638,186.935455 136.556778,185.402130 136.336212,184.181305 
	C135.561432,179.893082 134.191742,175.712357 132.959274,171.163925 
	C130.807541,171.850906 128.968323,172.438110 126.949173,173.161499 
	C126.528069,173.477493 126.292305,173.664139 125.735748,173.918076 
	C124.971161,174.034103 124.532761,174.089661 124.094360,174.145233 
	C119.474312,171.070984 121.031258,168.361176 125.072083,165.338455 
	C128.025681,163.577072 130.495728,162.246628 132.965790,160.916199 
	C135.398315,164.449615 135.988647,169.521545 141.502899,170.861176 
	C143.099457,174.762909 144.372681,178.554855 145.830399,182.647522 
M124.049004,170.325134 
	C124.045532,170.094635 124.042061,169.864120 124.038589,169.633621 
	C123.984459,169.860413 123.930328,170.087204 124.049004,170.325134 
z"/>
<path fill="white" opacity="1.000000" stroke="none" 
	d="
M71.638412,20.015902 
	C75.396416,19.322147 78.815407,18.713516 82.624847,18.391590 
	C83.027962,19.137627 83.040627,19.596958 83.129623,20.365160 
	C83.513794,21.467951 83.821625,22.261873 84.129448,23.055798 
	C75.934166,26.866936 68.386124,31.563511 62.213287,38.649078 
	C59.828999,37.026489 57.890072,35.505486 55.951145,33.984478 
	C61.067234,29.356661 66.183319,24.728842 71.638412,20.015902 
z"/>
<path fill="white" opacity="1.000000" stroke="none" 
	d="
M170.995407,200.854431 
	C174.053528,200.854431 177.111649,200.854431 180.908600,200.854431 
	C180.276413,199.008347 179.726456,197.402420 179.084198,195.494812 
	C187.764572,197.750015 196.756363,199.822510 203.572800,206.786224 
	C201.244354,208.474106 199.063095,209.754486 196.532990,210.956238 
	C187.787888,207.536545 179.391647,204.195480 170.995407,200.854431 
z"/>
<path fill="white" opacity="1.000000" stroke="none" 
	d="
M196.901245,88.664108 
	C195.060486,90.499123 193.034744,92.043816 190.709259,93.789764 
	C189.925293,93.700333 189.441071,93.409660 188.956848,93.118988 
	C187.761505,90.437729 186.162903,91.245384 184.293396,92.420815 
	C182.269302,93.693443 180.079376,94.702316 177.623505,95.895889 
	C177.239853,90.625137 177.194473,85.284721 177.490143,79.360107 
	C182.864319,75.711655 183.671478,80.659821 185.851089,83.005806 
	C189.472809,84.795135 193.094528,86.584457 196.901245,88.664108 
z"/>
<path fill="white" opacity="1.000000" stroke="none" 
	d="
M145.936066,26.057461 
	C142.715393,21.839705 139.504196,17.602575 136.185562,13.153026 
	C145.211151,15.181547 153.004242,19.781218 160.014862,26.920536 
	C161.603989,28.310762 162.858017,29.128626 164.112061,29.946487 
	C164.410324,30.080997 164.657120,30.279488 164.749466,30.997162 
	C162.741882,32.981136 160.837326,34.509907 158.932755,36.038677 
	C156.472992,34.073795 154.013229,32.108913 151.088257,29.841499 
	C150.406769,29.352234 150.179474,29.180006 149.941208,29.022276 
	C149.662094,28.874363 149.423584,28.677284 148.898026,28.002525 
	C147.689682,27.070333 146.809021,26.566662 145.928360,26.062986 
	C145.928360,26.062984 145.945541,26.038090 145.936066,26.057461 
z"/>
<path fill="white" opacity="1.000000" stroke="none" 
	d="
M26.053944,212.008575 
	C24.454571,210.169891 22.855200,208.331223 21.112213,206.182587 
	C27.047590,202.923218 33.126583,199.973816 39.606598,197.266113 
	C39.906963,199.074387 39.806305,200.640961 39.659546,202.924988 
	C42.489002,202.153961 44.751839,201.336975 47.085648,200.963593 
	C49.017742,200.654495 51.033585,200.868851 52.678459,201.019028 
	C43.581043,204.794052 34.817493,208.401321 26.053944,212.008575 
z"/>
<path fill="white" opacity="1.000000" stroke="none" 
	d="
M185.887817,82.561607 
	C183.671478,80.659821 182.864319,75.711655 177.530838,78.895050 
	C176.158020,73.288795 175.085587,67.563408 174.305817,61.257999 
	C177.113586,60.103119 179.628662,59.528255 182.143753,58.953392 
	C183.404007,66.674736 184.664261,74.396072 185.887817,82.561607 
z"/>
<path fill="white" opacity="1.000000" stroke="none" 
	d="
M53.012321,200.851273 
	C51.033585,200.868851 49.017742,200.654495 47.085648,200.963593 
	C44.751839,201.336975 42.489002,202.153961 39.659546,202.924988 
	C39.806305,200.640961 39.906963,199.074387 39.988468,197.228729 
	C46.032299,194.670273 52.095287,192.390884 58.517654,190.027802 
	C66.445473,191.604874 61.168106,195.260178 59.721943,198.629150 
	C57.188759,199.621597 55.100540,200.236435 53.012321,200.851273 
z"/>
<path fill="white" opacity="1.000000" stroke="none" 
	d="
M159.089386,36.340210 
	C160.837326,34.509907 162.741882,32.981136 164.872467,31.202703 
	C169.371765,37.058674 173.645065,43.164307 177.686523,49.494179 
	C174.700287,49.816521 171.945847,49.914627 169.191422,50.012733 
	C165.876282,45.555733 162.561157,41.098732 159.089386,36.340210 
z"/>
<path fill="white" opacity="1.000000" stroke="none" 
	d="
M142.975998,48.127800 
	C144.251251,45.929585 145.526505,43.731365 146.943283,41.209808 
	C153.273254,44.414436 157.443085,49.611107 159.559372,56.524635 
	C155.277390,54.129189 154.897415,58.729324 152.596466,59.795925 
	C149.223816,55.763474 146.099899,51.945637 142.975998,48.127800 
z"/>
<path fill="white" opacity="1.000000" stroke="none" 
	d="
M94.968643,13.980499 
	C104.960182,9.630617 114.989731,10.362074 125.032089,12.806518 
	C125.145477,13.363865 125.258865,13.921213 125.372253,14.478561 
	C123.086494,15.401121 120.800735,16.323681 118.254990,17.452995 
	C117.555908,17.671883 117.116821,17.684019 116.128281,17.423779 
	C112.542305,14.667562 109.636154,14.281258 106.965675,17.686749 
	C106.531975,17.706573 106.098282,17.726397 105.076218,17.509216 
	C101.328781,17.175020 98.169701,17.077827 95.005966,16.605848 
	C94.990417,15.480874 94.979530,14.730687 94.968643,13.980499 
z"/>
<path fill="white" opacity="1.000000" stroke="none" 
	d="
M49.312645,62.765968 
	C46.600986,63.061115 44.128071,63.091225 41.292877,63.048935 
	C42.669170,57.934086 44.407738,52.891632 46.635342,47.699936 
	C49.708450,48.370464 52.292522,49.190247 54.876591,50.010025 
	C53.101524,54.173660 51.326454,58.337296 49.312645,62.765968 
z"/>
<path fill="white" opacity="1.000000" stroke="none" 
	d="
M55.018333,49.702484 
	C52.292522,49.190247 49.708450,48.370464 46.817116,47.382687 
	C49.460171,42.907822 52.410488,38.600956 55.655975,34.139286 
	C57.890072,35.505486 59.828999,37.026489 61.936714,38.845039 
	C62.105499,39.142578 62.008049,39.084747 61.855049,39.213093 
	C61.464745,39.582329 61.227436,39.823215 60.990131,40.064106 
	C60.990131,40.064106 61.001736,39.984791 60.808365,40.209885 
	C60.092136,41.348988 59.569275,42.263004 59.046417,43.177017 
	C57.750973,45.249660 56.455528,47.322304 55.018333,49.702484 
z"/>
<path fill="white" opacity="1.000000" stroke="none" 
	d="
M196.881836,211.034851 
	C199.063095,209.754486 201.244354,208.474106 203.754913,207.072220 
	C207.041763,211.376373 209.999283,215.802063 212.802780,220.505325 
	C210.280884,218.716522 208.437042,218.785141 207.267593,222.028946 
	C206.889236,223.078430 206.320297,224.059204 205.604065,224.810379 
	C202.540329,220.044525 199.711075,215.539688 196.881836,211.034851 
z"/>
<path fill="white" opacity="1.000000" stroke="none" 
	d="
M70.672310,46.080570 
	C73.677986,46.576313 76.494888,47.181068 79.489044,48.213127 
	C76.767746,52.092133 73.869194,55.543839 70.574120,58.938549 
	C67.756775,58.575859 65.335960,58.270168 62.915146,57.964478 
	C64.733932,54.740913 66.552719,51.517353 68.781189,48.030060 
	C69.449501,47.471622 69.708130,47.176910 69.966759,46.882195 
	C70.076149,46.604412 70.248405,46.373543 70.672310,46.080570 
z"/>
<path fill="white" opacity="1.000000" stroke="none" 
	d="
M152.845230,60.010536 
	C154.897415,58.729324 155.277390,54.129189 159.561096,56.882698 
	C161.520523,60.424793 163.218689,63.842655 164.983780,67.618637 
	C162.823944,69.842583 160.597183,71.708420 157.888916,73.536682 
	C155.886673,69.002914 154.365952,64.506721 152.845230,60.010536 
z"/>
<path fill="white" opacity="1.000000" stroke="none" 
	d="
M62.657238,58.194820 
	C65.335960,58.270168 67.756775,58.575859 70.514488,59.302750 
	C69.487556,63.473030 68.123726,67.222107 66.350937,70.976357 
	C62.999527,71.636414 60.057079,72.291306 57.114639,72.946198 
	C58.876202,68.105858 60.637764,63.265511 62.657238,58.194820 
z"/>
<path fill="white" opacity="1.000000" stroke="none" 
	d="
M76.973953,160.144806 
	C73.325119,155.012177 69.676292,149.879547 66.195786,144.469391 
	C68.925354,143.408203 71.486595,142.624542 74.327988,142.040451 
	C76.116142,144.819489 77.624161,147.398956 79.041939,150.273590 
	C78.292450,153.760757 77.633202,156.952789 76.973953,160.144806 
z"/>
<path fill="white" opacity="1.000000" stroke="none" 
	d="
M157.925217,114.825035 
	C160.348419,116.815987 162.771622,118.806938 165.517883,120.898712 
	C164.774170,124.516266 163.707397,128.032974 162.405945,131.810303 
	C159.608826,131.751801 157.046402,131.432693 154.206314,130.655609 
	C155.260849,125.073425 156.593033,119.949226 157.925217,114.825035 
z"/>
<path fill="white" opacity="1.000000" stroke="none" 
	d="
M205.838531,225.071396 
	C206.320297,224.059204 206.889236,223.078430 207.267593,222.028946 
	C208.437042,218.785141 210.280884,218.716522 212.847305,220.873749 
	C213.358582,222.065506 213.671310,223.166412 214.012604,224.618362 
	C213.670593,228.045898 213.225327,231.115768 212.951996,234.200897 
	C212.713318,236.894882 211.813736,238.672577 208.317673,237.688660 
	C207.363922,235.871078 206.769226,234.456955 206.121918,232.601318 
	C205.992386,229.796982 205.915451,227.434189 205.838531,225.071396 
z"/>
<path fill="white" opacity="1.000000" stroke="none" 
	d="
M74.047844,141.840881 
	C71.486595,142.624542 68.925354,143.408203 66.118286,144.121704 
	C65.872475,144.051544 65.942276,144.012985 65.869850,143.797607 
	C65.593712,143.091125 65.390007,142.600021 65.186295,142.108932 
	C64.132622,139.662140 63.078941,137.215363 62.125366,134.105865 
	C62.484577,132.627960 62.743690,131.812729 63.001404,130.998749 
	C63.000000,131.000000 62.997765,131.002792 63.348579,130.929199 
	C65.499664,130.224899 67.299927,129.594193 69.338654,129.240143 
	C71.067352,133.624832 72.557602,137.732849 74.047844,141.840881 
z"/>
<path fill="white" opacity="1.000000" stroke="none" 
	d="
M57.072029,73.378098 
	C60.057079,72.291306 62.999527,71.636414 66.262672,71.356857 
	C66.084297,78.141144 65.585220,84.550102 65.086143,90.959061 
	C63.640911,87.716492 62.195675,84.473930 60.170624,79.930466 
	C58.600887,82.644562 57.537979,84.482361 56.326191,86.616821 
	C56.461353,82.545662 56.745392,78.177834 57.072029,73.378098 
z"/>
<path fill="white" opacity="1.000000" stroke="none" 
	d="
M169.294174,50.351395 
	C171.945847,49.914627 174.700287,49.816521 177.763214,49.846779 
	C179.385391,52.725590 180.699066,55.476044 182.078247,58.589943 
	C179.628662,59.528255 177.113586,60.103119 174.273895,60.861359 
	C172.431839,57.593174 170.914383,54.141613 169.294174,50.351395 
z"/>
<path fill="white" opacity="1.000000" stroke="none" 
	d="
M94.561523,13.995388 
	C94.979530,14.730687 94.990417,15.480874 94.811966,16.791492 
	C92.080780,18.831812 89.538925,20.311699 86.997078,21.791586 
	C86.564560,21.871866 86.132034,21.952147 85.204697,21.858109 
	C84.157684,21.141289 83.605492,20.598789 83.053291,20.056292 
	C83.040627,19.596958 83.027962,19.137627 83.005257,18.333622 
	C86.714943,16.662727 90.434677,15.336502 94.561523,13.995388 
z"/>
<path fill="white" opacity="1.000000" stroke="none" 
	d="
M77.141235,160.405579 
	C77.633202,156.952789 78.292450,153.760757 79.315002,150.444092 
	C80.792603,151.853867 81.906906,153.388290 83.021210,154.922729 
	C82.402603,157.749634 81.784004,160.576523 81.069122,163.711227 
	C79.751396,162.901459 78.529953,161.783905 77.141235,160.405579 
z"/>
<path fill="white" opacity="1.000000" stroke="none" 
	d="
M57.183262,115.344574 
	C58.448734,116.408295 59.682266,117.835022 60.961498,120.040512 
	C61.670719,124.213776 62.334240,127.608284 62.997765,131.002792 
	C62.997765,131.002792 63.000000,131.000000 62.648613,131.004440 
	C61.826958,131.017715 61.356697,131.026566 60.886433,131.035416 
	C59.641396,125.926140 58.396358,120.816864 57.183262,115.344574 
z"/>
<path fill="white" opacity="1.000000" stroke="none" 
	d="
M87.376022,21.784103 
	C89.538925,20.311699 92.080780,18.831812 94.816620,17.166279 
	C98.169701,17.077827 101.328781,17.175020 104.751572,17.480234 
	C99.261841,19.051046 93.508408,20.413834 87.376022,21.784103 
z"/>
<path fill="white" opacity="1.000000" stroke="none" 
	d="
M56.141251,98.456566 
	C58.910118,102.585091 59.959938,107.336212 57.455505,112.708839 
	C56.854187,108.294434 56.471973,103.601135 56.141251,98.456566 
z"/>
<path fill="white" opacity="1.000000" stroke="none" 
	d="
M46.855965,94.429550 
	C46.257687,93.803452 45.712410,92.721809 45.079468,91.085358 
	C44.995274,90.355331 44.998745,90.180130 44.844276,89.828735 
	C44.471340,89.421478 44.247158,89.199692 44.017975,88.654182 
	C44.027447,87.877060 44.032730,87.432953 44.038017,86.988838 
	C44.821983,84.834312 45.605953,82.679794 46.614517,80.279015 
	C46.862392,84.679848 46.885677,89.326935 46.855965,94.429550 
z"/>
<path fill="white" opacity="1.000000" stroke="none" 
	d="
M107.415039,17.754610 
	C109.636154,14.281258 112.542305,14.667562 115.800110,17.391663 
	C113.302391,17.695436 110.583405,17.758953 107.415039,17.754610 
z"/>
<path fill="white" opacity="1.000000" stroke="none" 
	d="
M177.246216,98.489700 
	C177.422852,100.185173 177.554657,102.308380 177.489258,104.681084 
	C177.261826,102.926201 177.231598,100.921822 177.246216,98.489700 
z"/>
<path fill="white" opacity="1.000000" stroke="none" 
	d="
M163.935562,29.670601 
	C162.858017,29.128626 161.603989,28.310762 160.192047,27.201532 
	C161.275803,27.738346 162.517426,28.566528 163.935562,29.670601 
z"/>
<path fill="white" opacity="1.000000" stroke="none" 
	d="
M176.809204,194.713989 
	C175.789139,194.512070 174.557526,194.065170 173.165634,193.396820 
	C174.202774,193.606583 175.400223,194.037796 176.809204,194.713989 
z"/>
<path fill="white" opacity="1.000000" stroke="none" 
	d="
M83.129623,20.365160 
	C83.605492,20.598789 84.157684,21.141289 84.881027,21.922295 
	C84.926865,22.431345 84.745636,22.656961 84.318962,22.946728 
	C83.821625,22.261873 83.513794,21.467951 83.129623,20.365160 
z"/>
<path fill="white" opacity="1.000000" stroke="none" 
	d="
M60.947327,131.354401 
	C61.356697,131.026566 61.826958,131.017715 62.650017,131.003204 
	C62.743690,131.812729 62.484577,132.627960 62.094147,133.736374 
	C61.644627,133.244186 61.326424,132.458786 60.947327,131.354401 
z"/>
<path fill="white" opacity="1.000000" stroke="none" 
	d="
M146.100464,26.326908 
	C146.809021,26.566662 147.689682,27.070333 148.770401,27.807259 
	C148.071167,27.557283 147.171875,27.074057 146.100464,26.326908 
z"/>
<path fill="white" opacity="1.000000" stroke="none" 
	d="
M59.305763,42.983284 
	C59.569275,42.263004 60.092136,41.348988 60.848022,40.215679 
	C60.575737,40.927441 60.070419,41.858498 59.305763,42.983284 
z"/>
<path fill="white" opacity="1.000000" stroke="none" 
	d="
M69.763245,47.021271 
	C69.708130,47.176910 69.449501,47.471622 69.062683,47.841000 
	C69.090172,47.620235 69.298584,47.368465 69.763245,47.021271 
z"/>
<path fill="white" opacity="1.000000" stroke="none" 
	d="
M65.182877,142.389526 
	C65.390007,142.600021 65.593712,143.091125 65.889908,143.832062 
	C65.714737,143.611313 65.447098,143.140732 65.182877,142.389526 
z"/>
<path fill="white" opacity="1.000000" stroke="none" 
	d="
M81.175583,167.279907 
	C81.249283,167.280380 81.258194,167.493317 81.204300,167.811325 
	C81.180176,167.914886 81.149498,167.490860 81.175583,167.279907 
z"/>
<path fill="white" opacity="1.000000" stroke="none" 
	d="
M150.062378,29.209068 
	C150.179474,29.180006 150.406769,29.352234 150.783401,29.678875 
	C150.632034,29.782621 150.378632,29.641645 150.062378,29.209068 
z"/>
<path fill="white" opacity="1.000000" stroke="none" 
	d="
M61.229546,39.952293 
	C61.227436,39.823215 61.464745,39.582329 61.883774,39.164257 
	C61.866653,39.271545 61.667809,39.556015 61.229546,39.952293 
z"/>
<path fill="white" opacity="1.000000" stroke="none" 
	d="
M205.604050,224.810379 
	C205.915451,227.434189 205.992386,229.796982 206.082657,233.060059 
	C205.868027,245.630096 205.868011,245.629608 194.005692,246.099472 
	C193.676147,246.112534 193.348068,246.162796 193.019302,246.195694 
	C169.823792,246.131409 146.628235,246.079285 123.432854,245.983856 
	C121.128632,245.974380 118.825500,245.700699 116.184364,245.282623 
	C115.862999,242.309784 115.879135,239.603958 115.881592,235.985443 
	C115.872025,230.386581 115.876114,225.700409 115.880203,221.014252 
	C122.435539,213.872589 128.990875,206.730942 135.668198,199.287476 
	C140.736755,191.078217 141.220413,190.859512 150.080582,193.829956 
	C156.827316,196.091843 163.524841,198.500580 170.619843,200.849213 
	C179.391647,204.195480 187.787888,207.536545 196.532990,210.956238 
	C199.711075,215.539688 202.540329,220.044525 205.604050,224.810379 
z"/>
<path fill="white" opacity="1.000000" stroke="none" 
	d="
M52.678459,201.019028 
	C55.100540,200.236435 57.188759,199.621597 59.637394,198.931641 
	C79.626732,190.197006 80.954140,190.498917 94.771400,206.775009 
	C95.520523,207.657471 96.099747,208.787125 97.023964,209.402069 
	C106.576576,215.758148 108.213509,225.043015 107.043022,235.529633 
	C106.694084,238.655807 106.964890,241.851151 106.914902,245.478088 
	C78.994186,245.959747 51.110260,246.001099 23.226561,245.939545 
	C21.548666,245.935852 19.872583,245.111633 18.030640,244.086029 
	C17.865623,243.502869 17.821259,243.070755 17.821259,243.070755 
	C17.849062,241.987640 17.876865,240.904510 17.861534,239.416946 
	C17.920509,234.896332 17.120480,230.484970 18.346998,226.736740 
	C19.977934,221.752609 23.188011,217.285217 25.886799,212.302216 
	C34.817493,208.401321 43.581043,204.794052 52.678459,201.019028 
z"/>
<path fill="white" opacity="1.000000" stroke="none" 
	d="
M193.292816,246.415634 
	C193.348068,246.162796 193.676147,246.112534 194.005692,246.099472 
	C205.868011,245.629608 205.868027,245.630096 206.135254,233.501587 
	C206.769226,234.456955 207.363922,235.871078 207.986740,237.633560 
	C207.845947,247.946411 203.359497,250.633484 193.292816,246.415634 
z"/>
<path fill="white" opacity="1.000000" stroke="none" 
	d="
M17.807125,243.178467 
	C17.821259,243.070755 17.865623,243.502869 17.848408,243.719086 
	C17.790403,243.720505 17.777670,243.504120 17.807125,243.178467 
z"/>
<path fill="white" opacity="1.000000" stroke="none" 
	d="
M83.356026,155.009933 
	C81.906906,153.388290 80.792603,151.853867 79.405243,150.148926 
	C77.624161,147.398956 76.116142,144.819489 74.327988,142.040451 
	C72.557602,137.732849 71.067352,133.624832 69.277481,128.873459 
	C68.250702,125.128204 67.523537,122.026283 66.731506,118.719513 
	C66.502289,118.269150 66.286087,118.084267 66.026901,117.967331 
	C66.035759,117.974655 66.031586,117.938377 66.031586,117.938377 
	C66.031586,117.938377 65.933975,117.462463 65.900635,116.794373 
	C65.606087,110.425720 65.344879,104.725151 65.083672,99.024590 
	C65.511787,98.957535 65.939911,98.890472 67.136078,98.839691 
	C72.268250,98.504959 76.632385,98.153961 80.996513,97.802963 
	C96.506096,94.976471 110.224991,88.517189 121.780807,77.680679 
	C123.355637,76.203880 124.888885,74.682716 126.952744,73.055038 
	C127.464111,72.927986 127.925323,73.027664 128.005692,73.367828 
	C129.355759,75.823853 130.625473,77.939720 131.963562,80.335335 
	C132.319046,81.097641 132.606140,81.580193 133.077209,82.341980 
	C138.508392,87.044464 143.755585,91.467690 149.311432,96.043404 
	C150.710770,96.490364 151.801483,96.784851 153.155807,97.322403 
	C155.262299,98.075958 157.105179,98.586456 158.958344,99.070435 
	C158.968628,99.043907 158.914566,99.065018 158.914566,99.065018 
	C158.597244,104.031067 158.279922,108.997108 157.943909,114.394096 
	C156.593033,119.949226 155.260849,125.073425 153.847946,130.583649 
	C152.188309,134.699417 150.609390,138.429169 148.957001,142.509033 
	C148.883545,142.859161 148.927261,142.926163 148.489868,142.924469 
	C141.045914,142.991974 134.039368,143.061172 127.032814,143.130371 
	C125.465279,142.041122 123.690163,141.157242 122.370232,139.823029 
	C118.806839,136.221085 114.734253,134.729889 109.061752,136.179459 
	C102.871910,139.048157 100.328613,143.365005 101.024887,149.551956 
	C101.583740,154.517929 105.037552,157.419312 109.109108,158.571426 
	C114.329674,160.048691 119.694618,159.488235 123.046310,154.030670 
	C123.335258,153.568802 123.624214,153.106918 124.441864,152.341522 
	C130.310516,151.988724 135.650482,151.939438 140.990448,151.890137 
	C138.464279,154.735657 135.938095,157.581177 133.188858,160.671448 
	C130.495728,162.246628 128.025681,163.577072 125.309219,165.079834 
	C122.350006,165.810349 119.659378,166.675171 116.920532,166.873306 
	C105.497681,167.699677 94.906891,165.749969 86.503059,157.062851 
	C85.722450,156.255920 84.635536,155.745316 83.356026,155.009933 
z"/>
<path fill="white" opacity="1.000000" stroke="none" 
	d="
M188.568298,93.159531 
	C189.441071,93.409660 189.925293,93.700333 190.686737,94.071045 
	C195.331909,100.613243 196.179504,107.629547 193.789505,114.935280 
	C193.158188,116.865082 191.726242,118.790825 190.138275,120.066658 
	C188.910629,121.052979 186.865311,121.021538 185.183517,121.442566 
	C185.041519,119.922134 184.713272,118.392242 184.790024,116.882935 
	C185.108887,110.611900 185.417587,104.334038 186.033691,98.088638 
	C186.199799,96.404938 187.435181,94.826721 188.568298,93.159531 
z"/>
<path fill="white" opacity="1.000000" stroke="none" 
	d="
M127.129097,173.025314 
	C128.968323,172.438110 130.807541,171.850906 132.959274,171.163925 
	C134.191742,175.712357 135.561432,179.893082 136.336212,184.181305 
	C136.556778,185.402130 135.047638,186.935455 134.156494,188.601898 
	C133.077133,189.739395 132.172989,190.600479 130.944946,191.842773 
	C130.406876,192.402176 130.282425,192.629532 130.247711,192.906006 
	C130.197189,193.075577 130.146652,193.245132 130.034225,193.672791 
	C124.883369,199.116135 119.658295,204.177399 114.768692,209.544296 
	C112.644379,211.875961 111.185837,211.951584 109.163338,209.700653 
	C102.529694,202.317825 95.712898,195.093979 89.276543,187.544708 
	C88.151573,186.225220 88.130203,183.593399 88.297554,181.627106 
	C88.576111,178.354279 89.419762,175.129532 90.059525,171.462463 
	C97.611603,172.704620 105.074463,174.741852 112.672440,175.865295 
	C116.126877,176.376053 119.848747,175.078232 123.771835,174.373001 
	C124.532761,174.089661 124.971161,174.034103 125.960068,173.849609 
	C126.775574,173.541199 126.981743,173.309418 127.129097,173.025314 
z"/>
<path fill="white" opacity="1.000000" stroke="none" 
	d="
M115.586273,221.073837 
	C115.876114,225.700409 115.872025,230.386581 115.826797,235.537781 
	C115.292526,236.518600 114.799385,237.034363 114.153122,237.775055 
	C114.000000,238.000000 113.995468,238.004898 113.995468,238.004898 
	C108.475510,236.301437 107.882835,234.841446 107.919891,227.340439 
	C107.946365,221.978912 111.739754,221.885269 115.586273,221.073837 
z"/>
<path fill="white" opacity="1.000000" stroke="none" 
	d="
M114.002472,237.997742 
	C114.004936,237.995483 114.019691,238.036270 114.007584,238.020584 
	C113.995468,238.004898 114.000000,238.000000 114.002472,237.997742 
z"/>
<path fill="white" opacity="1.000000" stroke="none" 
	d="
M65.531311,90.974182 
	C65.585220,84.550102 66.084297,78.141144 66.671638,71.351685 
	C68.123726,67.222107 69.487556,63.473030 70.911018,59.359749 
	C73.869194,55.543839 76.767746,52.092133 79.840057,48.359890 
	C85.838242,45.075935 91.381142,41.174484 97.541672,39.243240 
	C113.798409,34.146999 128.907486,37.214989 142.685333,47.947044 
	C146.099899,51.945637 149.223816,55.763474 152.596466,59.795925 
	C154.365952,64.506721 155.886673,69.002914 157.652924,73.776169 
	C158.103073,79.189842 158.307709,84.326454 157.901230,89.707214 
	C155.263519,88.896980 152.989532,88.145355 151.257843,86.730141 
	C146.504532,82.845535 141.979004,78.682251 137.348999,74.658920 
	C137.334702,74.688568 137.398163,74.706108 137.307693,74.382584 
	C136.498123,72.682228 135.779022,71.305389 134.996140,69.612282 
	C134.345428,68.173019 133.758499,67.050026 133.123901,65.538605 
	C131.883469,63.165123 131.106781,60.466587 129.352890,59.443836 
	C128.167465,58.752583 124.963768,59.842350 123.785759,61.148354 
	C120.812592,64.444565 118.474236,68.313370 115.881508,71.952728 
	C101.266869,83.594719 84.913658,90.678993 65.531311,90.974182 
z"/>
<path fill="white" opacity="1.000000" stroke="none" 
	d="
M133.171570,65.927040 
	C133.758499,67.050026 134.345428,68.173019 134.932144,69.910278 
	C135.754013,71.918404 136.576080,73.312256 137.398163,74.706108 
	C137.398163,74.706108 137.334702,74.688568 137.352448,75.044495 
	C138.056747,79.085365 136.583542,81.318977 132.893234,82.062737 
	C132.606140,81.580193 132.319046,81.097641 132.021042,80.048729 
	C130.648529,77.330803 129.286926,75.179230 127.925323,73.027664 
	C127.925323,73.027664 127.464111,72.927986 127.236603,72.865295 
	C126.705139,71.110886 126.401176,69.419159 126.160950,67.093330 
	C128.233475,62.276455 130.814667,65.565613 133.171570,65.927040 
z"/>
<path fill="white" opacity="1.000000" stroke="none" 
	d="
M133.123901,65.538605 
	C130.814667,65.565613 128.233475,62.276455 126.107681,66.726044 
	C124.492882,67.857414 122.995094,68.721962 120.961456,69.936508 
	C119.279060,70.857483 118.132523,71.428452 116.985985,71.999420 
	C116.801910,71.991714 116.617844,71.984001 116.157639,71.964508 
	C118.474236,68.313370 120.812592,64.444565 123.785759,61.148354 
	C124.963768,59.842350 128.167465,58.752583 129.352890,59.443836 
	C131.106781,60.466587 131.883469,63.165123 133.123901,65.538605 
z"/>
<path fill="white" opacity="1.000000" stroke="none" 
	d="
M66.796379,118.924370 
	C67.523537,122.026283 68.250702,125.128204 69.039032,128.596802 
	C67.299927,129.594193 65.499664,130.224899 63.348579,130.929199 
	C62.334240,127.608284 61.670719,124.213776 60.996902,120.402023 
	C62.465790,119.405251 63.944969,118.825714 65.727867,118.092270 
	C66.031586,117.938377 66.035759,117.974655 66.150917,118.133255 
	C66.436691,118.507858 66.613457,118.718697 66.796379,118.924370 
z"/>
<path fill="white" opacity="1.000000" stroke="none" 
	d="
M64.826302,99.295334 
	C65.344879,104.725151 65.606087,110.425720 65.833214,116.561005 
	C62.078278,111.419533 61.971081,105.588272 64.826302,99.295334 
z"/>
<path fill="white" opacity="1.000000" stroke="none" 
	d="
M116.873932,72.314247 
	C118.132523,71.428452 119.279060,70.857483 120.710991,70.142998 
	C122.223618,74.194382 119.883423,76.233208 115.649239,77.425743 
	C116.020119,75.826851 116.391006,74.227959 116.873932,72.314247 
z"/>
<path fill="white" opacity="1.000000" stroke="none" 
	d="
M80.742477,97.599518 
	C76.632385,98.153961 72.268250,98.504959 67.456558,98.785614 
	C71.502151,98.275543 75.995293,97.835808 80.742477,97.599518 
z"/>
<path fill="white" opacity="1.000000" stroke="none" 
	d="
M83.496643,95.513947 
	C83.513611,95.511185 83.479683,95.516716 83.496643,95.513947 
z"/>
<path fill="white" opacity="1.000000" stroke="none" 
	d="
M122.725227,153.945404 
	C119.694618,159.488235 114.329674,160.048691 109.109108,158.571426 
	C105.037552,157.419312 101.583740,154.517929 101.024887,149.551956 
	C100.328613,143.365005 102.871910,139.048157 108.689697,136.238831 
	C107.421791,139.913452 105.671043,143.626740 104.282356,147.470840 
	C102.844543,151.450928 104.833786,153.639832 108.725815,153.845581 
	C113.272804,154.085968 117.843651,153.875183 122.725227,153.945404 
z"/>
<path fill="white" opacity="1.000000" stroke="none" 
	d="
M127.336578,143.345108 
	C134.039368,143.061172 141.045914,142.991974 148.523224,142.902374 
	C141.984695,146.529480 134.826859,145.496460 127.336578,143.345108 
z"/>
<path fill="white" opacity="1.000000" stroke="none" 
	d="
M112.084534,144.069733 
	C113.488945,145.414963 116.318306,147.252548 116.052856,148.020782 
	C114.858604,151.477005 112.275604,150.609909 109.787788,148.521301 
	C110.484680,146.772415 111.284607,145.421066 112.084534,144.069733 
z"/>
<path fill="white" opacity="1.000000" stroke="none" 
	d="
M140.706680,151.654633 
	C135.650482,151.939438 130.310516,151.988724 124.506699,152.071289 
	C129.352051,148.272324 134.884537,149.775375 140.706680,151.654633 
z"/>
<path fill="white" opacity="1.000000" stroke="none" 
	d="
M111.794273,144.012482 
	C111.284607,145.421066 110.484680,146.772415 109.596764,148.312622 
	C108.801857,147.795181 108.094925,147.088882 107.387993,146.382584 
	C108.760002,145.573471 110.132004,144.764359 111.794273,144.012482 
z"/>
<path fill="white" opacity="1.000000" stroke="none" 
	d="
M30.082609,97.449112 
	C31.326353,96.106903 32.365211,94.877907 33.687557,94.315765 
	C36.020916,93.323830 37.802532,93.610184 38.041168,96.873108 
	C38.609440,104.643349 39.392078,112.397911 40.138405,120.586693 
	C35.655479,122.274231 30.893248,119.999283 30.212780,115.091019 
	C29.430325,109.447128 30.014700,103.613747 30.082609,97.449112 
z"/>
<path fill="white" opacity="1.000000" stroke="none" 
	d="
M41.336857,114.818443 
	C41.086571,112.801064 40.833324,110.555893 41.363949,108.514488 
	C41.586807,107.657127 43.468170,107.230865 44.802399,106.800446 
	C43.889679,109.552498 42.770115,112.112740 41.336857,114.818443 
z"/>
<path fill="white" opacity="1.000000" stroke="none" 
	d="
M44.033138,86.574020 
	C44.032730,87.432953 44.027447,87.877060 44.176731,88.829498 
	C44.547813,89.567352 44.771454,89.789726 45.002216,90.004936 
	C44.998745,90.180130 44.995274,90.355331 44.985519,90.794006 
	C43.208008,90.958488 40.586853,91.521667 39.869835,90.601341 
	C38.858910,89.303780 38.886612,86.852753 39.161354,84.997223 
	C39.422123,83.236061 40.572563,81.606628 41.331783,79.919273 
	C41.889206,79.948204 42.446625,79.977142 43.004047,80.006081 
	C43.345451,82.057121 43.686855,84.108162 44.033138,86.574020 
z"/>
<path fill="white" opacity="1.000000" stroke="none" 
	d="
M130.370941,192.760254 
	C130.282425,192.629532 130.406876,192.402176 130.782959,192.111801 
	C130.806030,192.212936 130.655807,192.417892 130.370941,192.760254 
z"/>
<path fill="white" opacity="1.000000" stroke="none" 
	d="
M152.892181,97.079330 
	C151.801483,96.784851 150.710770,96.490364 149.258133,95.724609 
	C148.487091,93.578011 148.078003,91.902695 147.448334,89.324165 
	C151.468307,89.933228 154.726700,90.426903 157.985092,90.920578 
	C158.967010,89.845474 160.302277,88.921822 160.843994,87.658028 
	C161.567825,85.969292 161.675934,84.016640 162.136246,81.743935 
	C165.726578,85.293465 166.028259,96.886543 162.988861,102.611511 
	C161.735474,101.498909 160.569611,100.464012 159.159149,99.247070 
	C158.914566,99.065018 158.968628,99.043907 158.807877,98.781982 
	C156.728806,98.039818 154.810501,97.559570 152.892181,97.079330 
z"/>
<path fill="white" opacity="1.000000" stroke="none" 
	d="
M157.986542,90.721054 
	C154.726700,90.426903 151.468307,89.933228 147.448334,89.324165 
	C148.078003,91.902695 148.487091,93.578011 148.949493,95.572128 
	C143.755585,91.467690 138.508392,87.044464 133.077209,82.341980 
	C136.583542,81.318977 138.056747,79.085365 137.366760,75.014847 
	C141.979004,78.682251 146.504532,82.845535 151.257843,86.730141 
	C152.989532,88.145355 155.263519,88.896980 157.640320,90.036926 
	C157.990540,90.122482 157.987991,90.521530 157.986542,90.721054 
z"/>
<path fill="white" opacity="1.000000" stroke="none" 
	d="
M123.962601,170.319565 
	C123.930328,170.087204 123.984459,169.860413 124.038589,169.633621 
	C124.042061,169.864120 124.045532,170.094635 123.962601,170.319565 
z"/>
<path fill="white" opacity="1.000000" stroke="none" 
	d="
M126.949173,173.161499 
	C126.981743,173.309418 126.775574,173.541199 126.286255,173.789139 
	C126.292305,173.664139 126.528069,173.477493 126.949173,173.161499 
z"/>
<path fill="white" opacity="1.000000" stroke="none" 
	d="
M44.844276,89.828735 
	C44.771454,89.789726 44.547813,89.567352 44.172546,89.162506 
	C44.247158,89.199692 44.471340,89.421478 44.844276,89.828735 
z"/>
<path fill="white" opacity="1.000000" stroke="none" 
	d="
M128.005692,73.367828 
	C129.286926,75.179230 130.648529,77.330803 131.952652,79.768974 
	C130.625473,77.939720 129.355759,75.823853 128.005692,73.367828 
z"/>
<path fill="white" opacity="1.000000" stroke="none" 
	d="
M153.155807,97.322403 
	C154.810501,97.559570 156.728806,98.039818 158.797577,98.808510 
	C157.105179,98.586456 155.262299,98.075958 153.155807,97.322403 
z"/>
<path fill="white" opacity="1.000000" stroke="none" 
	d="
M66.731506,118.719513 
	C66.613457,118.718697 66.436691,118.507858 66.142059,118.125931 
	C66.286087,118.084267 66.502289,118.269150 66.731506,118.719513 
z"/>
<path fill="white" opacity="1.000000" stroke="none" 
	d="
M137.307693,74.382584 
	C136.576080,73.312256 135.754013,71.918404 134.995926,70.226547 
	C135.779022,71.305389 136.498123,72.682228 137.307693,74.382584 
z"/>
</svg>