<svg width="200" height="60" viewBox="0 0 200 60" fill="none" xmlns="http://www.w3.org/2000/svg">
<path fill-rule="evenodd" clip-rule="evenodd" d="M41.6354 48.7188C41.8125 48.6406 43.4687 47.2552 44.5573 46.276C49.2552 42.0625 52.6406 36.776 53.9583 31.6042C54.4323 29.75 54.6302 27.7656 54.5208 25.9896C54.4375 24.5833 54.3542 24.0052 54.0781 22.8438C53.2656 19.4271 51.2083 16.2813 48.2344 13.8906C46.6927 12.651 44.5521 11.474 42.4323 10.6979C40.0989 9.83855 37.3958 9.26563 35.0625 9.13021L34.1146 9.07292C33.8333 9.0573 33.0781 9.07292 32.4323 9.10417C31.7917 9.13542 31.2552 9.15626 31.2396 9.14584C31.2187 9.12501 31.5469 8.19792 31.7708 7.65105C32.0417 6.9948 32.8281 5.46875 33.3437 4.60938C33.6354 4.11459 33.875 3.67709 33.875 3.63542C33.875 3.53646 33.7604 3.48959 33.6458 3.53126C33.4114 3.61459 32.3646 4.39063 31.5104 5.10938C30.875 5.64063 29.8073 6.69271 29.2239 7.36459C27.1458 9.73438 26.0937 11.9375 25.8021 14.5156C25.7239 15.1927 25.7656 16.9635 25.8698 17.5052C26.2969 19.7083 27.0989 21.474 28.5781 23.4427C29.6771 24.9063 30.9479 26.1979 33.7187 28.6667C36.625 31.2552 38.4323 32.9844 39.4479 34.1615C40.9583 35.901 42.0937 37.8698 42.5729 39.5729C42.8385 40.5208 42.9219 41.1823 42.9219 42.3542C42.9219 43.6823 42.8437 44.3229 42.526 45.5521C42.375 46.1458 41.9219 47.3906 41.625 48.0156C41.3021 48.7031 41.3021 48.8698 41.6354 48.7188ZM47.5989 35.9583C47.7656 35.5573 48.2187 33.9115 48.375 33.1302C48.8333 30.8125 48.8281 28.276 48.3542 26.0938C47.7864 23.4896 46.5364 21.2396 44.5573 19.25C42.0677 16.75 39.1354 15.1719 35.1823 14.2031C34.1302 13.9479 32.8646 13.7396 31.75 13.651C31.3906 13.6198 31.0104 13.5885 30.9062 13.5781L30.7239 13.5573L30.75 13.7604C30.7864 14.0313 30.9896 14.7292 31.2031 15.3073C31.5677 16.3021 32.3021 17.5677 33.0052 18.4063C34.1562 19.7813 35.2812 20.7656 38.276 23C40.5 24.6667 41.5937 25.5781 42.8125 26.8021C45.1562 29.1458 46.5521 31.4948 47.2083 34.1927C47.3437 34.7552 47.4844 35.5417 47.5208 35.9323L47.5364 36.099L47.5989 35.9583Z" fill="white"/>
<mask id="mask0_1518_2220" style="mask-type:luminance" maskUnits="userSpaceOnUse" x="60" y="5" width="124" height="43">
<path d="M184 5.33333H60V48H184V5.33333Z" fill="white"/>
</mask>
<g mask="url(#mask0_1518_2220)">
<path d="M69.7312 37.5065C68.2573 37.5065 66.9448 37.2565 65.7937 36.7565C64.6375 36.2461 63.7208 35.5482 63.0437 34.6732C62.3771 33.7877 62.0073 32.7929 61.9396 31.694H67.0646C67.1167 32.2929 67.3875 32.7721 67.8771 33.1315C68.3615 33.4961 68.9604 33.6732 69.6687 33.6732C70.3198 33.6732 70.8198 33.5482 71.1687 33.2982C71.5281 33.0482 71.7104 32.7252 71.7104 32.319C71.7104 31.8346 71.45 31.4752 70.9396 31.2357C70.4396 31.0013 69.6167 30.7461 68.4812 30.4648C67.2729 30.1732 66.2573 29.8763 65.4396 29.569C64.6323 29.2513 63.9396 28.7513 63.3562 28.069C62.7729 27.3919 62.4812 26.4752 62.4812 25.319C62.4812 24.3502 62.7417 23.4648 63.2729 22.6732C63.8146 21.8711 64.6062 21.2357 65.6479 20.7773C66.6896 20.3086 67.9292 20.069 69.3771 20.069C71.5021 20.069 73.174 20.6002 74.3979 21.6523C75.6167 22.7096 76.3198 24.1054 76.5021 25.8398H71.7104C71.6271 25.2565 71.3615 24.7929 70.9187 24.444C70.4865 24.1002 69.9187 23.9232 69.2104 23.9232C68.6115 23.9232 68.1479 24.0429 67.8146 24.2773C67.4917 24.5169 67.3354 24.8346 67.3354 25.2357C67.3354 25.7252 67.5906 26.0898 68.1062 26.3398C68.6167 26.5794 69.424 26.8138 70.5229 27.0482C71.7729 27.3815 72.7937 27.7096 73.5854 28.0273C74.3771 28.3346 75.0698 28.8346 75.6687 29.5273C76.2625 30.2252 76.5698 31.1627 76.5854 32.3398C76.5854 33.3294 76.3042 34.2148 75.7521 35.0065C75.1948 35.7877 74.3979 36.3971 73.3562 36.8398C72.3146 37.2825 71.1062 37.5065 69.7312 37.5065Z" fill="white"/>
<path d="M104.419 20.319V37.2565H99.2314V34.944C98.7002 35.694 97.9867 36.2982 97.0856 36.7565C96.1794 37.2148 95.1898 37.444 94.1064 37.444C92.8148 37.444 91.6689 37.1627 90.6689 36.5898C89.6794 36.0065 88.9085 35.1679 88.3564 34.069C87.8148 32.9752 87.5439 31.6888 87.5439 30.2148V20.319H92.7106V29.5065C92.7106 30.6471 93.0023 31.5273 93.5856 32.1523C94.1689 32.7773 94.9606 33.0898 95.9606 33.0898C96.9606 33.0898 97.7523 32.7773 98.3356 32.1523C98.9294 31.5273 99.2314 30.6471 99.2314 29.5065V20.319H104.419Z" fill="white"/>
<path d="M121.252 23.1315C121.861 22.2044 122.617 21.4752 123.523 20.944C124.439 20.4023 125.45 20.1315 126.564 20.1315V25.6315H125.148C123.856 25.6315 122.882 25.9127 122.231 26.4648C121.575 27.0221 121.252 28.0013 121.252 29.4023V37.2565H116.064V20.319H121.252V23.1315Z" fill="white"/>
<path d="M146.411 32.8607V37.2565H143.786C141.896 37.2565 140.422 36.7982 139.37 35.8815C138.328 34.9544 137.807 33.444 137.807 31.3607V24.6315H135.745V20.319H137.807V16.194H142.995V20.319H146.39V24.6315H142.995V31.4232C142.995 31.9388 143.109 32.3086 143.349 32.5273C143.599 32.7513 144.005 32.8607 144.578 32.8607H146.411Z" fill="white"/>
<path d="M167.549 20.1315C169.533 20.1315 171.116 20.7773 172.299 22.069C173.476 23.3502 174.07 25.1107 174.07 27.3607V37.2565H168.903V28.069C168.903 26.9336 168.611 26.0482 168.028 25.4232C167.445 24.7982 166.653 24.4857 165.653 24.4857C164.663 24.4857 163.872 24.7982 163.278 25.4232C162.695 26.0482 162.403 26.9336 162.403 28.069V37.2565H157.215V20.319H162.403V22.569C162.929 21.819 163.637 21.2304 164.528 20.7982C165.429 20.3554 166.434 20.1315 167.549 20.1315Z" fill="white"/>
</g>
<mask id="mask1_1518_2220" style="mask-type:luminance" maskUnits="userSpaceOnUse" x="114" y="40" width="62" height="11">
<path d="M176 40H114.667V50.6667H176V40Z" fill="white"/>
</mask>
<g mask="url(#mask1_1518_2220)">
<mask id="mask2_1518_2220" style="mask-type:luminance" maskUnits="userSpaceOnUse" x="116" y="41" width="59" height="8">
<path d="M116.021 41.1771H174.797V48.7552H116.021V41.1771Z" fill="white"/>
</mask>
<g mask="url(#mask2_1518_2220)">
<mask id="mask3_1518_2220" style="mask-type:luminance" maskUnits="userSpaceOnUse" x="116" y="41" width="59" height="8">
<path d="M119.812 41.1771H171C173.094 41.1771 174.792 42.8698 174.792 44.9636C174.792 47.0573 173.094 48.7552 171 48.7552H119.812C117.719 48.7552 116.021 47.0573 116.021 44.9636C116.021 42.8698 117.719 41.1771 119.812 41.1771Z" fill="white"/>
</mask>
<g mask="url(#mask3_1518_2220)">
<mask id="mask4_1518_2220" style="mask-type:luminance" maskUnits="userSpaceOnUse" x="115" y="40" width="61" height="10">
<path d="M176 40H116V49.3333H176V40Z" fill="white"/>
</mask>
<g mask="url(#mask4_1518_2220)">
<mask id="mask5_1518_2220" style="mask-type:luminance" maskUnits="userSpaceOnUse" x="116" y="41" width="59" height="8">
<path d="M116.021 41.1771H174.797V48.7552H116.021V41.1771Z" fill="white"/>
</mask>
<g mask="url(#mask5_1518_2220)">
<mask id="mask6_1518_2220" style="mask-type:luminance" maskUnits="userSpaceOnUse" x="116" y="41" width="59" height="8">
<path d="M119.812 41.1771H171C173.094 41.1771 174.792 42.8698 174.792 44.9636C174.792 47.0573 173.094 48.7552 171 48.7552H119.812C117.719 48.7552 116.021 47.0573 116.021 44.9636C116.021 42.8698 117.719 41.1771 119.812 41.1771Z" fill="white"/>
</mask>
<g mask="url(#mask6_1518_2220)">
<path d="M116.021 41.1771H174.797V48.7552H116.021V41.1771Z" fill="#FFC20E"/>
</g>
</g>
</g>
</g>
</g>
<path d="M121.145 44.0793C121.239 43.9127 121.385 43.7825 121.583 43.6835C121.776 43.5741 122 43.5168 122.25 43.5168C122.541 43.5168 122.802 43.595 123.041 43.746C123.276 43.9023 123.463 44.1158 123.604 44.3918C123.739 44.6575 123.812 44.9752 123.812 45.3502C123.812 45.7148 123.739 46.0325 123.604 46.3085C123.463 46.5898 123.276 46.8033 123.041 46.9543C122.802 47.095 122.541 47.1627 122.25 47.1627C122 47.1627 121.776 47.1158 121.583 47.0168C121.401 46.9231 121.255 46.7877 121.145 46.621V47.121H120.062V42.4127H121.145V44.0793ZM122.687 45.3502C122.687 45.0741 122.609 44.8606 122.458 44.7043C122.317 44.5533 122.135 44.4752 121.916 44.4752C121.692 44.4752 121.505 44.5533 121.354 44.7043C121.213 44.8606 121.145 45.0741 121.145 45.3502C121.145 45.6158 121.213 45.8293 121.354 45.996C121.505 46.1523 121.692 46.2252 121.916 46.2252C122.135 46.2252 122.317 46.1523 122.458 45.996C122.609 45.8293 122.687 45.6158 122.687 45.3502Z" fill="white"/>
<path d="M129.368 45.2877C129.368 45.3866 129.357 45.4908 129.347 45.6002H126.889C126.915 45.8241 126.993 45.996 127.118 46.121C127.243 46.2356 127.394 46.2877 127.576 46.2877C127.836 46.2877 128.024 46.1783 128.139 45.9543H129.284C129.227 46.1783 129.123 46.3866 128.972 46.5793C128.816 46.7616 128.623 46.9075 128.389 47.0168C128.149 47.1158 127.894 47.1627 127.618 47.1627C127.269 47.1627 126.956 47.095 126.68 46.9543C126.399 46.8033 126.185 46.5898 126.034 46.3085C125.894 46.0325 125.826 45.7148 125.826 45.3502C125.826 44.9752 125.894 44.6575 126.034 44.3918C126.185 44.1158 126.394 43.9023 126.659 43.746C126.935 43.595 127.253 43.5168 127.618 43.5168C127.951 43.5168 128.248 43.595 128.514 43.746C128.79 43.8866 128.998 44.095 129.139 44.371C129.29 44.6366 129.368 44.9439 129.368 45.2877ZM128.264 44.996C128.264 44.8189 128.201 44.6731 128.076 44.5585C127.951 44.4491 127.79 44.3918 127.597 44.3918C127.415 44.3918 127.264 44.4491 127.139 44.5585C127.014 44.6575 126.935 44.8033 126.909 44.996H128.264Z" fill="white"/>
<path d="M134.403 45.3502C134.403 44.9752 134.471 44.6575 134.612 44.3918C134.763 44.1158 134.971 43.9023 135.237 43.746C135.513 43.595 135.825 43.5168 136.174 43.5168C136.617 43.5168 136.987 43.6366 137.278 43.871C137.58 44.1106 137.784 44.4335 137.882 44.8502H136.716C136.617 44.5898 136.429 44.4543 136.153 44.4543C135.955 44.4543 135.799 44.5325 135.674 44.6835C135.56 44.8398 135.507 45.0585 135.507 45.3502C135.507 45.6418 135.56 45.8658 135.674 46.0168C135.799 46.1731 135.955 46.246 136.153 46.246C136.429 46.246 136.617 46.1106 136.716 45.8293H137.882C137.784 46.246 137.58 46.5741 137.278 46.8085C136.987 47.0481 136.617 47.1627 136.174 47.1627C135.825 47.1627 135.513 47.095 135.237 46.9543C134.971 46.8033 134.763 46.5898 134.612 46.3085C134.471 46.0325 134.403 45.7148 134.403 45.3502Z" fill="white"/>
<path d="M143.447 45.2877C143.447 45.3866 143.437 45.4908 143.426 45.6002H140.968C140.994 45.8241 141.072 45.996 141.197 46.121C141.322 46.2356 141.473 46.2877 141.655 46.2877C141.916 46.2877 142.103 46.1783 142.218 45.9543H143.364C143.306 46.1783 143.202 46.3866 143.051 46.5793C142.895 46.7616 142.702 46.9075 142.468 47.0168C142.228 47.1158 141.973 47.1627 141.697 47.1627C141.348 47.1627 141.036 47.095 140.76 46.9543C140.478 46.8033 140.265 46.5898 140.114 46.3085C139.973 46.0325 139.905 45.7148 139.905 45.3502C139.905 44.9752 139.973 44.6575 140.114 44.3918C140.265 44.1158 140.473 43.9023 140.739 43.746C141.015 43.595 141.332 43.5168 141.697 43.5168C142.03 43.5168 142.327 43.595 142.593 43.746C142.869 43.8866 143.077 44.095 143.218 44.371C143.369 44.6366 143.447 44.9439 143.447 45.2877ZM142.343 44.996C142.343 44.8189 142.28 44.6731 142.155 44.5585C142.03 44.4491 141.869 44.3918 141.676 44.3918C141.494 44.3918 141.343 44.4491 141.218 44.5585C141.093 44.6575 141.015 44.8033 140.989 44.996H142.343Z" fill="white"/>
<path d="M146.769 44.1627C146.894 43.97 147.05 43.8189 147.248 43.7043C147.441 43.595 147.649 43.5377 147.873 43.5377V44.6835H147.582C147.316 44.6835 147.113 44.746 146.977 44.871C146.837 44.9856 146.769 45.1835 146.769 45.4752V47.121H145.686V43.5793H146.769V44.1627Z" fill="white"/>
<path d="M152.042 46.2043V47.121H151.48C151.089 47.121 150.782 47.0273 150.563 46.8293C150.339 46.6366 150.23 46.3241 150.23 45.8918V44.4752H149.792V43.5793H150.23V42.7043H151.313V43.5793H152.022V44.4752H151.313V45.8918C151.313 46.0064 151.339 46.0898 151.397 46.1418C151.449 46.1835 151.532 46.2043 151.647 46.2043H152.042Z" fill="white"/>
<path d="M154.093 45.3502C154.093 44.9752 154.155 44.6575 154.28 44.3918C154.416 44.1158 154.603 43.9023 154.843 43.746C155.093 43.595 155.364 43.5168 155.655 43.5168C155.905 43.5168 156.119 43.5741 156.301 43.6835C156.494 43.7825 156.64 43.9127 156.739 44.0793V43.5793H157.822V47.121H156.739V46.621C156.624 46.7877 156.473 46.9231 156.28 47.0168C156.098 47.1158 155.884 47.1627 155.634 47.1627C155.353 47.1627 155.093 47.095 154.843 46.9543C154.603 46.8033 154.416 46.5898 154.28 46.3085C154.155 46.0325 154.093 45.7148 154.093 45.3502ZM156.739 45.3502C156.739 45.0741 156.66 44.8606 156.509 44.7043C156.353 44.5533 156.176 44.4752 155.968 44.4752C155.744 44.4752 155.556 44.5533 155.405 44.7043C155.265 44.8606 155.197 45.0741 155.197 45.3502C155.197 45.6158 155.265 45.8293 155.405 45.996C155.556 46.1523 155.744 46.2252 155.968 46.2252C156.176 46.2252 156.353 46.1523 156.509 45.996C156.66 45.8293 156.739 45.6158 156.739 45.3502Z" fill="white"/>
<path d="M160.815 43.2043C160.617 43.2043 160.461 43.1523 160.336 43.0377C160.221 42.9283 160.169 42.7877 160.169 42.621C160.169 42.4543 160.221 42.3189 160.336 42.2043C160.461 42.095 160.617 42.0377 160.815 42.0377C161.008 42.0377 161.159 42.095 161.273 42.2043C161.398 42.3189 161.461 42.4543 161.461 42.621C161.461 42.7877 161.398 42.9283 161.273 43.0377C161.159 43.1523 161.008 43.2043 160.815 43.2043ZM161.357 43.5793V47.121H160.273V43.5793H161.357Z" fill="white"/>
<path d="M165.973 43.5377C166.374 43.5377 166.702 43.6783 166.952 43.9543C167.202 44.22 167.327 44.5898 167.327 45.0585V47.121H166.243V45.2043C166.243 44.97 166.181 44.7877 166.056 44.6627C165.941 44.5273 165.785 44.4543 165.577 44.4543C165.368 44.4543 165.202 44.5273 165.077 44.6627C164.952 44.7877 164.889 44.97 164.889 45.2043V47.121H163.806V43.5793H164.889V44.0377C164.999 43.8866 165.144 43.7668 165.327 43.6835C165.519 43.5898 165.733 43.5377 165.973 43.5377Z" fill="white"/>
<path d="M170.246 47.1627C170.064 47.1627 169.913 47.1106 169.788 46.996C169.663 46.8866 169.6 46.746 169.6 46.5793C169.6 46.4127 169.663 46.2773 169.788 46.1627C169.913 46.0533 170.064 45.996 170.246 45.996C170.439 45.996 170.59 46.0533 170.705 46.1627C170.83 46.2773 170.892 46.4127 170.892 46.5793C170.892 46.746 170.83 46.8866 170.705 46.996C170.59 47.1106 170.439 47.1627 170.246 47.1627Z" fill="white"/>
</g>
<mask id="mask7_1518_2220" style="mask-type:luminance" maskUnits="userSpaceOnUse" x="6" y="10" width="32" height="48">
<path d="M37.3333 10.6667H6.66663V57.3333H37.3333V10.6667Z" fill="white"/>
</mask>
<g mask="url(#mask7_1518_2220)">
<mask id="mask8_1518_2220" style="mask-type:luminance" maskUnits="userSpaceOnUse" x="7" y="11" width="30" height="46">
<path d="M7.68225 11.1979H36.802V56.6406H7.68225V11.1979Z" fill="white"/>
</mask>
<g mask="url(#mask8_1518_2220)">
<path fill-rule="evenodd" clip-rule="evenodd" d="M20.7447 11.276C20.5676 11.3542 18.9062 12.7448 17.8176 13.7187C13.1249 17.9323 9.73429 23.2187 8.41658 28.3906C7.94262 30.2448 7.74471 32.2292 7.85408 34.0052C7.94262 35.4115 8.02596 35.9896 8.302 37.151C9.1145 40.5677 11.1666 43.7135 14.1458 46.1042C15.6874 47.3437 17.828 48.5208 19.9426 49.2969C22.2812 50.1562 24.9791 50.7292 27.3176 50.8646L28.2655 50.9219C28.5468 50.9375 29.302 50.9219 29.9426 50.8906C30.5885 50.8594 31.1249 50.8385 31.1353 50.849C31.1562 50.8698 30.828 51.7969 30.6041 52.3437C30.3385 53 29.552 54.5312 29.0364 55.3854C28.7447 55.8802 28.5051 56.3177 28.5051 56.3594C28.5051 56.4583 28.6145 56.5104 28.7343 56.4635C28.9635 56.3802 30.0155 55.6042 30.8697 54.8854C31.4999 54.3542 32.5728 53.3021 33.1562 52.6302C35.2343 50.2604 36.2864 48.0573 36.578 45.4792C36.651 44.8073 36.6093 43.0312 36.5051 42.4896C36.0833 40.2865 35.276 38.5208 33.802 36.5521C32.703 35.0885 31.4322 33.7969 28.6562 31.3281C25.7551 28.7396 23.9478 27.0104 22.927 25.8333C21.4218 24.0937 20.2864 22.125 19.8072 20.4271C19.5416 19.474 19.4582 18.8125 19.4582 17.6406C19.4582 16.3125 19.5364 15.6719 19.8489 14.4427C19.9999 13.849 20.4582 12.6042 20.7499 11.9792C21.078 11.2917 21.078 11.125 20.7447 11.276ZM14.7812 24.0417C14.6093 24.4375 14.1562 26.0833 14.0051 26.8698C13.5416 29.1875 13.552 31.7187 14.026 33.901C14.5885 36.5052 15.8385 38.7552 17.8176 40.7448C20.3124 43.2448 23.2395 44.8229 27.1978 45.7917C28.2447 46.0521 29.5155 46.2552 30.6301 46.3437C30.9895 46.375 31.3645 46.4062 31.4687 46.4167L31.6562 46.4375L31.6301 46.2344C31.5885 45.9635 31.3853 45.2656 31.177 44.6927C30.8124 43.6927 30.078 42.4323 29.3749 41.5885C28.2239 40.2135 27.0989 39.2344 24.1041 36.9948C21.8801 35.3281 20.7864 34.4167 19.5676 33.1927C17.2187 30.849 15.8228 28.5 15.1718 25.8021C15.0312 25.2396 14.8905 24.4531 14.8593 24.0625L14.8437 23.8958L14.7812 24.0417Z" fill="#FFC20E"/>
</g>
</g>
</svg>
